<?xml version="1.0" encoding="utf-8"?>
<!-- Generator: Adobe Illustrator 27.5.0, SVG Export Plug-In . SVG Version: 6.00 Build 0)  -->
<svg version="1.1" xmlns="http://www.w3.org/2000/svg" xmlns:xlink="http://www.w3.org/1999/xlink" x="0px" y="0px"
	viewBox="0 0 500 500" style="enable-background:new 0 0 500 500;" xml:space="preserve">
<g id="Background_Complete">
	<g>
		<rect y="382.398" style="fill:#EBEBEB;" width="500" height="0.25"/>
		<rect x="78.545" y="390.788" style="fill:#EBEBEB;" width="33.122" height="0.25"/>
		<rect x="133.333" y="398" style="fill:#EBEBEB;" width="30.167" height="0.25"/>
		<rect x="56.854" y="400.074" style="fill:#EBEBEB;" width="38.251" height="0.25"/>
		<rect x="434" y="399.528" style="fill:#EBEBEB;" width="15.901" height="0.25"/>
		<rect x="391.471" y="399.528" style="fill:#EBEBEB;" width="39.321" height="0.25"/>
		<rect x="250" y="390.663" style="fill:#EBEBEB;" width="30.333" height="0.25"/>
		<rect x="284.667" y="390.663" style="fill:#EBEBEB;" width="72.095" height="0.25"/>
		<path style="fill:#EBEBEB;" d="M237.014,337.8H43.915c-3.147,0-5.708-2.561-5.708-5.708V60.66c0-3.147,2.561-5.708,5.708-5.708
			h193.099c3.146,0,5.707,2.561,5.707,5.708v271.432C242.721,335.239,240.16,337.8,237.014,337.8z M43.915,55.203
			c-3.01,0-5.458,2.448-5.458,5.458v271.432c0,3.01,2.448,5.458,5.458,5.458h193.099c3.009,0,5.457-2.448,5.457-5.458V60.66
			c0-3.009-2.448-5.458-5.457-5.458H43.915z"/>
		<path style="fill:#EBEBEB;" d="M453.31,337.8H260.212c-3.147,0-5.707-2.561-5.707-5.708V60.66c0-3.147,2.561-5.708,5.707-5.708
			H453.31c3.148,0,5.708,2.561,5.708,5.708v271.432C459.019,335.239,456.458,337.8,453.31,337.8z M260.212,55.203
			c-3.009,0-5.457,2.448-5.457,5.458v271.432c0,3.01,2.448,5.458,5.457,5.458H453.31c3.01,0,5.458-2.448,5.458-5.458V60.66
			c0-3.009-2.448-5.458-5.458-5.458H260.212z"/>
	</g>
	<path style="fill:#FFFFFF;" d="M239.245,216.871c2.007-3.329,7.245-6.02,11.74-6.02c1.083,0,2.023,0.158,2.801,0.441
		c3.049-2.439,7.418-4.119,11.322-4.119c4.722,0,7.214,2.458,6.252,5.743c4.315,0.212,6.209,2.951,4.228,6.3
		c-2.063,3.487-7.545,6.315-12.244,6.315h-27.075c-3.331,0-4.846-2.004-3.384-4.476
		C234.017,219.143,236.595,217.513,239.245,216.871z"/>
	<g>
		<g>
			<g>
				
					<rect x="354.817" y="166.507" transform="matrix(-1 -1.224647e-16 1.224647e-16 -1 740.4921 548.9048)" style="fill:#E6E6E6;" width="30.858" height="215.891"/>
				<polygon style="fill:#E6E6E6;" points="330.432,382.398 358.279,382.398 358.279,209.846 330.432,251.923 				"/>
				
					<rect x="395.196" y="237.818" transform="matrix(-1 -1.224647e-16 1.224647e-16 -1 821.2493 620.2156)" style="fill:#E6E6E6;" width="30.858" height="144.581"/>
				
					<rect x="305.821" y="219.794" transform="matrix(-1 -1.224647e-16 1.224647e-16 -1 627.3714 602.192)" style="fill:#E6E6E6;" width="15.73" height="162.604"/>
				
					<rect x="283.392" y="261.327" transform="matrix(-1 -1.224647e-16 1.224647e-16 -1 582.5145 643.7246)" style="fill:#E6E6E6;" width="15.73" height="121.072"/>
				
					<rect x="271.501" y="301.096" transform="matrix(-1 -1.224647e-16 1.224647e-16 -1 558.7313 683.4941)" style="fill:#E6E6E6;" width="15.73" height="81.302"/>
				
					<rect x="206.214" y="301.096" transform="matrix(-1 -1.224647e-16 1.224647e-16 -1 428.158 683.4941)" style="fill:#E6E6E6;" width="15.73" height="81.302"/>
				
					<rect x="221.267" y="326.76" transform="matrix(-1 -1.224647e-16 1.224647e-16 -1 458.2633 709.1581)" style="fill:#E6E6E6;" width="15.73" height="55.638"/>
				
					<rect x="430.381" y="301.096" transform="matrix(-1 -1.224647e-16 1.224647e-16 -1 876.4923 683.4941)" style="fill:#E6E6E6;" width="15.73" height="81.302"/>
				
					<rect x="294.682" y="287.578" transform="matrix(-1 -1.224647e-16 1.224647e-16 -1 731.7613 669.9764)" style="fill:#E6E6E6;" width="142.398" height="94.82"/>
				
					<rect x="206.214" y="344.392" transform="matrix(-1 -1.224647e-16 1.224647e-16 -1 554.8258 726.7899)" style="fill:#E6E6E6;" width="142.398" height="38.006"/>
			</g>
			<g>
				<rect x="143.125" y="202.663" style="fill:#F0F0F0;" width="49.128" height="179.735"/>
				<polygon style="fill:#F0F0F0;" points="231.076,382.398 186.741,382.398 186.741,238.744 231.076,273.775 				"/>
				<rect x="78.839" y="247.026" style="fill:#F0F0F0;" width="49.128" height="135.372"/>
				<rect x="245.215" y="247.026" style="fill:#F0F0F0;" width="25.044" height="135.372"/>
				<rect x="280.923" y="292.066" style="fill:#F0F0F0;" width="25.044" height="90.332"/>
				<rect x="299.855" y="314.712" style="fill:#F0F0F0;" width="25.044" height="67.686"/>
				<rect x="403.796" y="314.712" style="fill:#F0F0F0;" width="25.044" height="67.686"/>
				<rect x="379.832" y="336.078" style="fill:#F0F0F0;" width="25.044" height="46.32"/>
				<rect x="46.906" y="314.712" style="fill:#F0F0F0;" width="25.044" height="67.686"/>
				<rect x="61.285" y="278.153" style="fill:#F0F0F0;" width="226.708" height="104.245"/>
				<rect x="202.132" y="350.757" style="fill:#F0F0F0;" width="226.708" height="31.641"/>
			</g>
		</g>
		<path style="fill:#F0F0F0;" d="M473.923,82.803c0-13.433-10.889-24.322-24.322-24.322c-4.84,0-9.346,1.42-13.135,3.857
			c-6.92-11.382-19.438-18.984-33.732-18.984c-7.809,0-15.082,2.278-21.208,6.193c-3.093-2.514-7.034-4.026-11.331-4.026
			c-7.286,0-13.545,4.341-16.37,10.572c-0.926-0.074-1.859-0.123-2.803-0.123c-7.416,0-14.282,2.335-19.92,6.299
			c-4.401-8.463-13.243-14.248-23.442-14.248c-8.07,0-15.29,3.623-20.135,9.327c-5.213-4.355-11.922-6.978-19.246-6.978
			c-6.81,0-13.088,2.269-18.127,6.088c-1.111-15.579-14.093-27.876-29.956-27.876c-10.377,0-19.526,5.262-24.923,13.263
			c-2.114-0.472-4.309-0.728-6.564-0.728c-8.957,0-16.993,3.925-22.497,10.143c-5.079-2.915-10.96-4.59-17.235-4.59
			c-10.597,0-20.078,4.758-26.439,12.248c-6.845-5.718-15.655-9.163-25.272-9.163c-8.19,0-15.797,2.497-22.103,6.77
			c-3.177-2.829-7.351-4.562-11.939-4.562c-8.325,0-15.309,5.666-17.356,13.347c-11.267,2.123-19.792,12.01-19.792,23.894
			c0,13.433,10.889,24.322,24.322,24.322c4.84,0,9.346-1.42,13.135-3.857c6.92,11.382,19.438,18.984,33.732,18.984
			c7.809,0,15.082-2.278,21.208-6.193c3.093,2.514,7.034,4.026,11.331,4.026c7.286,0,13.545-4.341,16.37-10.572
			c0.926,0.074,1.859,0.123,2.803,0.123c7.416,0,14.282-2.335,19.92-6.299c4.401,8.463,13.243,14.247,23.442,14.247
			c8.07,0,15.29-3.623,20.135-9.327c3.844,3.211,8.502,5.475,13.621,6.445c4.525,8.052,13.143,13.496,23.037,13.496
			c14.122,0,25.654-11.083,26.376-25.025c7.51-1.855,13.902-6.535,17.993-12.847c4.093,2.605,8.948,4.121,14.159,4.121
			c3.425,0,6.694-0.659,9.697-1.845c3.738,15.121,17.389,26.335,33.665,26.335c10.597,0,20.078-4.758,26.439-12.248
			c6.845,5.718,15.655,9.163,25.272,9.163c8.191,0,15.797-2.497,22.103-6.77c3.177,2.829,7.351,4.562,11.939,4.562
			c8.325,0,15.309-5.666,17.355-13.346C465.398,104.573,473.923,94.686,473.923,82.803z"/>
	</g>
</g>
<g id="Background_Simple" style="display:none;">
	<g style="display:inline;">
		<path style="fill:#407BFF;" d="M218.645,127.963c-30.942,14.249-61.036,18.108-88.647,42.233
			c-21.644,18.912-41.948,41.96-44.93,77.848c-2.841,34.194,5.685,67.418,31.826,84.605c25.833,16.985,62.775,17.018,88.176,4.962
			c13.537-6.425,23.908-18.458,35.651-28.481c12.951-11.054,27.072-15.896,42.803-18.409c27.628-4.413,54.892-5.879,74.467-32.734
			c19.175-26.306,20.154-62.704,21.472-97.887c1.206-32.171,10.841-77.683-13.704-102.657
			c-23.215-23.622-64.768-21.143-86.972-2.931C254.056,74.797,248.315,114.3,218.645,127.963z"/>
		<path style="opacity:0.9;fill:#FFFFFF;" d="M218.645,127.963c-30.942,14.249-61.036,18.108-88.647,42.233
			c-21.644,18.912-41.948,41.96-44.93,77.848c-2.841,34.194,5.685,67.418,31.826,84.605c25.833,16.985,62.775,17.018,88.176,4.962
			c13.537-6.425,23.908-18.458,35.651-28.481c12.951-11.054,27.072-15.896,42.803-18.409c27.628-4.413,54.892-5.879,74.467-32.734
			c19.175-26.306,20.154-62.704,21.472-97.887c1.206-32.171,10.841-77.683-13.704-102.657
			c-23.215-23.622-64.768-21.143-86.972-2.931C254.056,74.797,248.315,114.3,218.645,127.963z"/>
	</g>
</g>
<g id="Shadow_1_">
	<ellipse id="_x3C_Path_x3E__215_" style="fill:#F5F5F5;" cx="250" cy="416.238" rx="193.889" ry="11.323"/>
</g>
<g id="Rain">
	<g style="opacity:0.3;">
		<path style="fill:#407BFF;" d="M30.066,294.535c-0.036,0-0.073-0.004-0.109-0.014c-0.226-0.06-0.36-0.292-0.301-0.518
			c1.997-7.533,3.796-14.531,5.5-21.392c0.056-0.226,0.286-0.367,0.513-0.309c0.227,0.056,0.365,0.286,0.309,0.513
			c-1.705,6.866-3.505,13.868-5.503,21.405C30.424,294.409,30.253,294.535,30.066,294.535z"/>
		<path style="fill:#407BFF;" d="M40.065,216.053c-0.031,0-0.063-0.003-0.094-0.011c-0.228-0.052-0.371-0.278-0.319-0.506
			c1.301-5.735,2.8-11.737,4.583-18.348c0.06-0.226,0.292-0.358,0.519-0.298c0.226,0.061,0.359,0.293,0.298,0.519
			c-1.78,6.6-3.276,12.59-4.575,18.314C40.433,215.92,40.258,216.053,40.065,216.053z"/>
		<path style="fill:#407BFF;" d="M30.526,175.614c-0.039,0-0.078-0.005-0.117-0.017c-0.225-0.065-0.354-0.299-0.29-0.524
			c0.755-2.618,1.52-5.232,2.291-7.845c0.066-0.224,0.3-0.352,0.525-0.286c0.224,0.066,0.353,0.301,0.286,0.525
			c-0.77,2.611-1.534,5.225-2.289,7.84C30.879,175.493,30.71,175.614,30.526,175.614z"/>
		<path style="fill:#407BFF;" d="M27.44,134.357c-0.039,0-0.08-0.006-0.12-0.018c-0.224-0.066-0.352-0.302-0.286-0.526
			c3.705-12.505,7.588-25.847,10.745-39.384c0.053-0.228,0.282-0.371,0.508-0.316c0.227,0.053,0.369,0.281,0.316,0.508
			c-3.163,13.559-7.048,26.915-10.758,39.432C27.792,134.238,27.623,134.357,27.44,134.357z"/>
		<path style="fill:#407BFF;" d="M75.702,106.47c-0.037,0-0.073-0.005-0.11-0.015c-0.226-0.061-0.359-0.292-0.299-0.519l1.623-6.053
			c0.061-0.226,0.295-0.36,0.518-0.299c0.226,0.061,0.36,0.292,0.299,0.518l-1.623,6.054
			C76.059,106.346,75.888,106.47,75.702,106.47z"/>
		<path style="fill:#407BFF;" d="M59.183,71.622c-0.036,0-0.073-0.005-0.109-0.015c-0.226-0.06-0.36-0.292-0.3-0.518l2.508-9.421
			c0.061-0.226,0.292-0.356,0.518-0.3c0.226,0.06,0.36,0.292,0.3,0.518l-2.509,9.42C59.541,71.497,59.37,71.622,59.183,71.622z"/>
		<path style="fill:#407BFF;" d="M69.393,33.54c-0.038,0-0.076-0.005-0.114-0.016c-0.225-0.063-0.356-0.297-0.293-0.522
			c1.694-6.052,3.37-12.11,5.031-18.171c0.062-0.225,0.291-0.358,0.52-0.296c0.226,0.062,0.358,0.295,0.296,0.52
			c-1.663,6.063-3.338,12.122-5.032,18.176C69.748,33.417,69.578,33.54,69.393,33.54z"/>
		<path style="fill:#407BFF;" d="M41.19,407.752c-0.037,0-0.074-0.005-0.111-0.015c-0.226-0.061-0.359-0.293-0.298-0.519
			c1.391-5.157,2.788-10.313,4.189-15.468c0.061-0.226,0.294-0.359,0.519-0.297c0.226,0.061,0.359,0.293,0.297,0.519
			c-1.4,5.155-2.797,10.31-4.188,15.467C41.548,407.628,41.377,407.752,41.19,407.752z"/>
		<path style="fill:#407BFF;" d="M32.625,355.68c-0.037,0-0.075-0.005-0.112-0.015c-0.225-0.062-0.358-0.294-0.296-0.52
			c1.957-7.159,3.919-14.316,5.883-21.473c0.062-0.225,0.295-0.358,0.52-0.296c0.226,0.062,0.358,0.295,0.296,0.52
			c-1.964,7.157-3.927,14.314-5.883,21.473C32.982,355.557,32.812,355.68,32.625,355.68z"/>
		<path style="fill:#407BFF;" d="M59.156,341.955c-0.038,0-0.075-0.005-0.113-0.015c-0.225-0.062-0.358-0.295-0.296-0.521
			l4.414-16.068c0.063-0.226,0.298-0.358,0.52-0.296c0.226,0.062,0.358,0.295,0.296,0.52l-4.414,16.069
			C59.512,341.832,59.342,341.955,59.156,341.955z"/>
		<path style="fill:#407BFF;" d="M105.303,323.899c-0.037,0-0.075-0.005-0.112-0.015c-0.225-0.061-0.358-0.294-0.296-0.52
			l1.643-6.012c0.061-0.226,0.297-0.359,0.52-0.297c0.226,0.061,0.358,0.294,0.297,0.52l-1.643,6.013
			C105.66,323.776,105.489,323.899,105.303,323.899z"/>
		<path style="fill:#407BFF;" d="M92.705,280.389c-0.037,0-0.074-0.005-0.111-0.015c-0.225-0.061-0.359-0.293-0.298-0.519
			c1.821-6.733,3.633-13.469,5.434-20.208c0.06-0.226,0.296-0.361,0.518-0.299c0.226,0.06,0.36,0.292,0.299,0.518
			c-1.8,6.74-3.612,13.476-5.434,20.21C93.062,280.265,92.891,280.389,92.705,280.389z"/>
		<path style="fill:#407BFF;" d="M95.421,223.615c-0.036,0-0.072-0.004-0.108-0.014c-0.226-0.059-0.361-0.291-0.302-0.517
			c0.887-3.373,1.769-6.747,2.647-10.122c0.059-0.226,0.292-0.363,0.516-0.303c0.227,0.059,0.362,0.29,0.303,0.516
			c-0.878,3.376-1.762,6.751-2.648,10.124C95.78,223.489,95.609,223.615,95.421,223.615z"/>
		<path style="fill:#407BFF;" d="M62.152,238.001c-0.038,0-0.077-0.005-0.115-0.016c-0.225-0.063-0.356-0.297-0.293-0.522
			l2.836-10.073c0.063-0.225,0.293-0.355,0.522-0.292c0.225,0.063,0.356,0.297,0.292,0.522l-2.836,10.073
			C62.506,237.879,62.337,238.001,62.152,238.001z"/>
		<path style="fill:#407BFF;" d="M118.034,179.056c-0.04,0-0.082-0.006-0.123-0.019c-0.224-0.068-0.35-0.305-0.281-0.528
			c0.473-1.552,0.94-3.105,1.4-4.662c0.066-0.224,0.301-0.351,0.526-0.286c0.224,0.066,0.352,0.302,0.286,0.526
			c-0.461,1.558-0.928,3.114-1.402,4.669C118.383,178.938,118.215,179.056,118.034,179.056z"/>
		<path style="fill:#407BFF;" d="M113.559,161.083c-0.038,0-0.075-0.005-0.113-0.015c-0.226-0.063-0.358-0.295-0.296-0.52
			c0.538-1.952,1.068-3.906,1.594-5.862c0.061-0.226,0.296-0.36,0.519-0.299c0.226,0.061,0.359,0.293,0.299,0.519
			c-0.526,1.958-1.057,3.913-1.595,5.867C113.915,160.96,113.745,161.083,113.559,161.083z"/>
		<path style="fill:#407BFF;" d="M128.426,141.502c-0.035,0-0.071-0.004-0.106-0.014c-0.227-0.058-0.363-0.289-0.304-0.515
			c1.142-4.437,2.27-8.878,3.396-13.319c0.057-0.227,0.292-0.362,0.514-0.306c0.227,0.058,0.364,0.288,0.306,0.514
			c-1.126,4.442-2.254,8.884-3.397,13.322C128.787,141.376,128.615,141.502,128.426,141.502z"/>
		<path style="fill:#407BFF;" d="M106.125,122.823c-0.035,0-0.07-0.004-0.106-0.014c-0.226-0.058-0.363-0.289-0.304-0.515
			c0.627-2.441,1.258-4.882,1.895-7.321c0.06-0.227,0.292-0.361,0.517-0.303c0.226,0.059,0.362,0.29,0.303,0.517
			c-0.637,2.438-1.268,4.878-1.895,7.318C106.485,122.696,106.313,122.823,106.125,122.823z"/>
		<path style="fill:#407BFF;" d="M139.761,95.703c-0.037,0-0.075-0.005-0.113-0.015c-0.225-0.063-0.357-0.295-0.295-0.521
			c1.913-6.934,3.736-13.198,5.572-19.151c0.069-0.224,0.304-0.349,0.529-0.28c0.224,0.069,0.349,0.306,0.28,0.529
			c-1.834,5.945-3.654,12.202-5.564,19.127C140.118,95.58,139.947,95.703,139.761,95.703z"/>
		<path style="fill:#407BFF;" d="M139.271,48.408c-0.032,0-0.064-0.003-0.097-0.011c-0.228-0.053-0.369-0.281-0.316-0.508
			c2.018-8.66,4.223-17.302,6.553-25.687c0.063-0.225,0.293-0.358,0.521-0.295c0.225,0.063,0.357,0.296,0.294,0.521
			c-2.327,8.374-4.529,17.004-6.544,25.653C139.638,48.276,139.464,48.408,139.271,48.408z"/>
		<path style="fill:#407BFF;" d="M86.018,365.481c-0.028,0-0.057-0.003-0.085-0.009c-0.229-0.046-0.377-0.27-0.33-0.499
			c0.633-3.107,1.479-6.43,2.589-10.158c0.066-0.225,0.302-0.352,0.526-0.285c0.224,0.067,0.352,0.302,0.285,0.526
			c-1.102,3.704-1.943,7.003-2.571,10.086C86.392,365.343,86.215,365.481,86.018,365.481z"/>
		<path style="fill:#407BFF;" d="M119.24,393.801c-0.042,0-0.086-0.006-0.128-0.02c-0.223-0.071-0.346-0.309-0.275-0.532
			c0.805-2.526,1.474-4.765,2.047-6.846c0.062-0.226,0.294-0.358,0.521-0.296c0.226,0.062,0.358,0.295,0.296,0.521
			c-0.576,2.092-1.249,4.342-2.057,6.878C119.586,393.686,119.419,393.801,119.24,393.801z"/>
		<path style="fill:#407BFF;" d="M129.244,357.363c-0.037,0-0.073-0.005-0.11-0.015c-0.226-0.061-0.36-0.292-0.299-0.518
			c2.045-7.632,4.086-15.266,6.126-22.899c0.06-0.226,0.296-0.361,0.518-0.299c0.226,0.06,0.36,0.292,0.299,0.518
			c-2.04,7.634-4.081,15.267-6.126,22.899C129.602,357.238,129.431,357.363,129.244,357.363z"/>
		<path style="fill:#407BFF;" d="M161.613,320.061c-0.037,0-0.073-0.005-0.11-0.015c-0.226-0.06-0.36-0.292-0.299-0.518
			l2.877-10.777c0.06-0.226,0.292-0.361,0.518-0.299c0.226,0.06,0.36,0.292,0.299,0.518l-2.877,10.777
			C161.971,319.936,161.8,320.061,161.613,320.061z"/>
		<path style="fill:#407BFF;" d="M150.303,278.576c-0.037,0-0.073-0.005-0.11-0.015c-0.226-0.06-0.36-0.292-0.299-0.518
			c1.321-4.936,2.645-9.872,3.969-14.807c0.061-0.227,0.293-0.358,0.519-0.299c0.226,0.06,0.359,0.293,0.299,0.519
			c-1.325,4.935-2.648,9.87-3.969,14.806C150.661,278.451,150.489,278.576,150.303,278.576z"/>
		<path style="fill:#407BFF;" d="M134.916,225.297c-0.037,0-0.074-0.005-0.111-0.015c-0.226-0.061-0.359-0.293-0.298-0.519
			l0.909-3.363c0.062-0.226,0.291-0.357,0.519-0.298c0.226,0.061,0.359,0.293,0.298,0.519l-0.909,3.363
			C135.273,225.172,135.102,225.297,134.916,225.297z"/>
		<path style="fill:#407BFF;" d="M172.779,204.037c-0.038,0-0.075-0.005-0.113-0.015c-0.226-0.062-0.358-0.295-0.296-0.52
			l1.113-4.038c0.062-0.226,0.295-0.357,0.521-0.296c0.226,0.063,0.358,0.295,0.296,0.521l-1.113,4.038
			C173.135,203.914,172.965,204.037,172.779,204.037z"/>
		<path style="fill:#407BFF;" d="M85.135,168.81c-0.038,0-0.076-0.005-0.114-0.016c-0.225-0.063-0.356-0.297-0.294-0.522
			c1.442-5.153,2.891-10.306,4.345-15.456c0.063-0.225,0.296-0.355,0.522-0.292c0.225,0.064,0.355,0.297,0.292,0.523
			c-1.455,5.149-2.903,10.301-4.344,15.454C85.491,168.688,85.32,168.81,85.135,168.81z"/>
		<path style="fill:#407BFF;" d="M181.518,104.664c-0.037,0-0.075-0.005-0.112-0.015c-0.226-0.062-0.358-0.294-0.297-0.52
			l5.882-21.552c0.062-0.226,0.295-0.358,0.52-0.297c0.226,0.062,0.358,0.294,0.297,0.52l-5.882,21.552
			C181.874,104.54,181.704,104.664,181.518,104.664z"/>
		<path style="fill:#407BFF;" d="M200.665,83.489c-0.037,0-0.075-0.005-0.112-0.015c-0.226-0.062-0.358-0.294-0.297-0.52
			l2.573-9.429c0.061-0.226,0.293-0.359,0.52-0.297c0.226,0.062,0.358,0.294,0.297,0.52l-2.573,9.429
			C201.022,83.365,200.852,83.489,200.665,83.489z"/>
		<path style="fill:#407BFF;" d="M213.036,49.037c-0.041,0-0.083-0.006-0.124-0.019c-0.224-0.068-0.35-0.305-0.281-0.528
			c0.835-2.734,1.464-5.554,2.072-8.281c0.703-3.149,1.429-6.405,2.479-9.578c0.074-0.221,0.312-0.341,0.535-0.268
			c0.222,0.074,0.342,0.313,0.268,0.535c-1.038,3.132-1.759,6.367-2.457,9.495c-0.611,2.743-1.244,5.58-2.088,8.344
			C213.385,48.92,213.217,49.037,213.036,49.037z"/>
		<path style="fill:#407BFF;" d="M161.339,382.744c-0.039,0-0.079-0.005-0.118-0.017c-0.225-0.065-0.354-0.299-0.289-0.524
			c0.572-1.977,1.143-3.954,1.712-5.932c0.064-0.224,0.295-0.353,0.524-0.29c0.225,0.064,0.354,0.299,0.29,0.524
			c-0.569,1.978-1.14,3.956-1.712,5.933C161.692,382.623,161.523,382.744,161.339,382.744z"/>
		<path style="fill:#407BFF;" d="M254.885,17.219c-0.037,0-0.075-0.005-0.112-0.015c-0.226-0.062-0.358-0.294-0.297-0.52
			l3.285-12.034c0.062-0.226,0.296-0.358,0.52-0.297c0.226,0.062,0.358,0.294,0.297,0.52l-3.285,12.034
			C255.241,17.095,255.071,17.219,254.885,17.219z"/>
		<path style="fill:#407BFF;" d="M292.523,34.19c-0.037,0-0.075-0.005-0.113-0.016c-0.225-0.062-0.357-0.295-0.295-0.521
			c1.196-4.335,2.339-8.764,3.443-13.047c0.552-2.142,1.105-4.283,1.666-6.422c0.06-0.226,0.289-0.364,0.517-0.302
			c0.226,0.059,0.361,0.291,0.302,0.517c-0.561,2.138-1.113,4.278-1.665,6.419c-1.105,4.287-2.249,8.719-3.448,13.061
			C292.879,34.067,292.709,34.19,292.523,34.19z"/>
		<path style="fill:#407BFF;" d="M331.309,269.26c-0.05,0-0.1-0.009-0.149-0.027c-0.219-0.082-0.33-0.326-0.247-0.545
			c2.707-7.191,4.607-14.764,6.446-22.087c0.54-2.15,1.08-4.3,1.64-6.445c0.06-0.227,0.292-0.359,0.517-0.303
			c0.226,0.059,0.362,0.291,0.303,0.517c-0.56,2.142-1.099,4.29-1.638,6.438c-1.844,7.346-3.751,14.942-6.475,22.178
			C331.641,269.155,331.479,269.26,331.309,269.26z"/>
		<path style="fill:#407BFF;" d="M363.119,221.739c-0.037,0-0.075-0.005-0.112-0.015c-0.226-0.062-0.358-0.294-0.297-0.52
			l8.107-29.702c0.061-0.226,0.294-0.359,0.52-0.297c0.226,0.062,0.358,0.294,0.297,0.52l-8.107,29.702
			C363.475,221.615,363.305,221.739,363.119,221.739z"/>
		<path style="fill:#407BFF;" d="M363.36,100.609c-0.037,0-0.075-0.005-0.112-0.015c-0.226-0.061-0.358-0.294-0.297-0.519
			l6.695-24.527c0.061-0.227,0.296-0.36,0.519-0.297c0.226,0.061,0.358,0.294,0.297,0.519l-6.695,24.527
			C363.717,100.485,363.546,100.609,363.36,100.609z"/>
		<path style="fill:#407BFF;" d="M359.82,53.022c-0.037,0-0.074-0.005-0.111-0.015c-0.226-0.061-0.359-0.293-0.298-0.519
			c2.343-8.678,4.788-17.488,7.092-25.769c0.063-0.225,0.296-0.358,0.521-0.294c0.225,0.063,0.357,0.296,0.294,0.521
			c-2.303,8.279-4.748,17.088-7.09,25.763C360.177,52.897,360.007,53.022,359.82,53.022z"/>
		<path style="fill:#407BFF;" d="M433.219,391.606c-0.038,0-0.077-0.005-0.116-0.016c-0.225-0.064-0.355-0.298-0.292-0.523
			c1.12-3.94,2.23-7.882,3.332-11.827c0.063-0.225,0.295-0.356,0.522-0.294c0.225,0.063,0.357,0.296,0.294,0.522
			c-1.102,3.946-2.212,7.89-3.332,11.831C433.573,391.485,433.403,391.606,433.219,391.606z"/>
		<path style="fill:#407BFF;" d="M412.543,345.913c-0.037,0-0.074-0.005-0.11-0.015c-0.226-0.061-0.359-0.293-0.299-0.518
			c1.931-7.173,3.843-14.352,5.745-21.532c0.06-0.226,0.294-0.361,0.518-0.301c0.226,0.06,0.36,0.292,0.301,0.518
			c-1.902,7.182-3.815,14.361-5.746,21.535C412.9,345.789,412.729,345.913,412.543,345.913z"/>
		<path style="fill:#407BFF;" d="M340.356,394.362c-0.036,0-0.072-0.004-0.108-0.014c-0.226-0.059-0.361-0.291-0.302-0.517
			l3.831-14.584c0.059-0.226,0.291-0.364,0.517-0.302c0.226,0.059,0.361,0.291,0.302,0.517l-3.831,14.585
			C340.715,394.236,340.544,394.362,340.356,394.362z"/>
		<path style="fill:#407BFF;" d="M318.764,331.185c-0.036,0-0.072-0.004-0.108-0.014c-0.226-0.06-0.361-0.291-0.301-0.517
			c1.282-4.859,2.568-9.716,3.86-14.573c0.061-0.226,0.291-0.356,0.518-0.3c0.226,0.06,0.36,0.292,0.3,0.518
			c-1.292,4.855-2.578,9.713-3.86,14.571C319.122,331.06,318.951,331.185,318.764,331.185z"/>
		<path style="fill:#407BFF;" d="M367.172,353.887c-0.037,0-0.074-0.005-0.11-0.015c-0.226-0.061-0.359-0.293-0.299-0.519
			c3.229-12.015,6.185-22.809,9.034-32.998c0.063-0.225,0.298-0.357,0.521-0.294c0.225,0.063,0.357,0.296,0.294,0.521
			c-2.849,10.188-5.803,20.979-9.032,32.99C367.53,353.763,367.359,353.887,367.172,353.887z"/>
		<path style="fill:#407BFF;" d="M369.109,287.965c-0.039,0-0.078-0.005-0.117-0.017c-0.225-0.064-0.354-0.299-0.29-0.523
			c1.729-6.026,3.465-11.976,5.158-17.684c0.066-0.224,0.302-0.351,0.526-0.286c0.224,0.066,0.352,0.302,0.286,0.526
			c-1.692,5.707-3.427,11.654-5.156,17.677C369.463,287.844,369.293,287.965,369.109,287.965z"/>
		<path style="fill:#407BFF;" d="M391.097,257.96c-0.032,0-0.065-0.004-0.098-0.012c-0.227-0.054-0.368-0.282-0.314-0.509
			c2.975-12.553,6.548-25.108,9.967-36.804c0.066-0.224,0.301-0.354,0.525-0.288c0.225,0.066,0.353,0.301,0.288,0.525
			c-3.416,11.686-6.986,24.227-9.957,36.762C391.462,257.829,391.289,257.96,391.097,257.96z"/>
		<path style="fill:#407BFF;" d="M424.899,210.184c-0.039,0-0.08-0.005-0.119-0.017c-0.225-0.066-0.353-0.301-0.287-0.525
			c1.361-4.63,2.714-9.263,4.037-13.904c0.064-0.225,0.296-0.353,0.523-0.291c0.225,0.064,0.355,0.298,0.291,0.523
			c-1.324,4.643-2.678,9.277-4.039,13.91C425.251,210.064,425.082,210.184,424.899,210.184z"/>
		<path style="fill:#407BFF;" d="M433.144,180.985c-0.036,0-0.072-0.004-0.108-0.014c-0.226-0.059-0.361-0.29-0.302-0.517
			c1.304-4.965,2.443-9.558,3.481-14.042c0.052-0.228,0.283-0.374,0.507-0.317c0.228,0.053,0.37,0.28,0.317,0.507
			c-1.04,4.493-2.18,9.094-3.487,14.067C433.502,180.859,433.331,180.985,433.144,180.985z"/>
		<path style="fill:#407BFF;" d="M373.295,154.246c-0.037,0-0.074-0.005-0.111-0.015c-0.226-0.062-0.358-0.294-0.297-0.52
			l9.575-35.082c0.061-0.226,0.292-0.361,0.52-0.297c0.226,0.062,0.358,0.294,0.297,0.52l-9.575,35.082
			C373.652,154.122,373.482,154.246,373.295,154.246z"/>
		<path style="fill:#407BFF;" d="M434.471,127.845c-0.037,0-0.075-0.005-0.112-0.015c-0.226-0.062-0.358-0.294-0.297-0.52
			l4.313-15.803c0.061-0.226,0.296-0.358,0.52-0.297c0.226,0.062,0.358,0.294,0.297,0.52l-4.313,15.803
			C434.827,127.722,434.657,127.845,434.471,127.845z"/>
		<path style="fill:#407BFF;" d="M426.116,81.013c-0.037,0-0.075-0.005-0.112-0.015c-0.226-0.062-0.358-0.294-0.297-0.52
			l1.549-5.676c0.062-0.226,0.295-0.358,0.52-0.297c0.226,0.062,0.358,0.294,0.297,0.52l-1.549,5.676
			C426.473,80.889,426.302,81.013,426.116,81.013z"/>
		<path style="fill:#407BFF;" d="M402,52.45c-0.037,0-0.073-0.005-0.11-0.015c-0.226-0.061-0.36-0.292-0.299-0.518
			c1.931-7.214,3.888-14.42,5.857-21.624c0.061-0.225,0.29-0.361,0.52-0.296c0.225,0.061,0.358,0.294,0.296,0.52
			c-1.969,7.202-3.924,14.407-5.855,21.619C402.358,52.325,402.186,52.45,402,52.45z"/>
		<path style="fill:#407BFF;" d="M465.658,37.489c-0.037,0-0.075-0.005-0.112-0.015c-0.225-0.062-0.358-0.295-0.296-0.521
			l1.016-3.699c1.535-5.588,3.07-11.176,4.6-16.766c0.062-0.225,0.293-0.358,0.52-0.296c0.225,0.062,0.358,0.294,0.296,0.52
			c-1.529,5.59-3.064,11.178-4.6,16.767l-1.016,3.699C466.014,37.365,465.844,37.489,465.658,37.489z"/>
		<path style="fill:#407BFF;" d="M448.705,270.376c-0.038,0-0.075-0.005-0.113-0.015c-0.225-0.062-0.358-0.295-0.296-0.521
			c2.825-10.268,5.645-20.536,8.458-30.807c0.062-0.226,0.294-0.358,0.52-0.296c0.226,0.062,0.358,0.294,0.296,0.52
			c-2.813,10.271-5.633,20.54-8.458,30.808C449.061,270.253,448.891,270.376,448.705,270.376z"/>
		<path style="fill:#407BFF;" d="M464.372,165.813c-0.037,0-0.074-0.005-0.11-0.015c-0.226-0.061-0.359-0.293-0.299-0.518
			c3.186-11.858,5.788-21.672,8.187-30.882c0.059-0.227,0.289-0.363,0.517-0.303c0.226,0.059,0.361,0.29,0.303,0.517
			c-2.4,9.213-5.002,19.028-8.189,30.889C464.729,165.689,464.559,165.813,464.372,165.813z"/>
		<path style="fill:#407BFF;" d="M112.576,24.225c-0.037,0-0.075-0.005-0.112-0.015c-0.226-0.062-0.358-0.294-0.297-0.52
			l1.966-7.201c0.061-0.226,0.297-0.358,0.52-0.297c0.226,0.062,0.358,0.294,0.297,0.519l-1.966,7.201
			C112.933,24.101,112.762,24.225,112.576,24.225z"/>
		<path style="fill:#407BFF;" d="M434.934,23.423c-0.037,0-0.075-0.005-0.112-0.015c-0.226-0.061-0.358-0.294-0.297-0.519
			l3.387-12.409c0.061-0.226,0.295-0.359,0.52-0.297c0.226,0.061,0.358,0.294,0.297,0.519l-3.387,12.409
			C435.29,23.299,435.12,23.423,434.934,23.423z"/>
		<path style="fill:#407BFF;" d="M457.163,54.735c-0.036,0-0.072-0.004-0.108-0.014c-0.226-0.06-0.361-0.291-0.301-0.517
			c0.403-1.527,0.816-3.052,1.237-4.575c0.062-0.225,0.294-0.359,0.521-0.295c0.225,0.062,0.357,0.295,0.295,0.521
			c-0.42,1.52-0.832,3.041-1.234,4.565C457.522,54.609,457.351,54.735,457.163,54.735z"/>
		<path style="fill:#407BFF;" d="M454.541,343.836c-0.039,0-0.078-0.005-0.117-0.017c-0.225-0.065-0.354-0.299-0.289-0.524
			c1.807-6.275,3.693-13.018,5.237-19.809c0.051-0.228,0.278-0.371,0.506-0.319c0.228,0.052,0.371,0.278,0.319,0.506
			c-1.549,6.811-3.439,13.568-5.249,19.855C454.894,343.716,454.725,343.836,454.541,343.836z"/>
	</g>
</g>
<g id="Character_1_">
	<g>
		<path style="fill:#FF8B7B;" d="M308.594,188.008l-2.847,0.433c-1.071,0.163-1.996,0.833-2.485,1.799l-2.285,4.515
			c-0.914,1.805-0.896,3.941,0.046,5.731l0.584,1.108c4.771-0.395,9.635-4.337,9.635-4.337l1.511-0.97
			c1.345-0.864,1.753-2.541,0.935-3.853l-1.883-3.02C311.154,188.372,309.876,187.812,308.594,188.008z"/>
		<path style="fill:#407BFF;" d="M274.472,176.378l0.485,2.07l0.576,2.161c0.397,1.442,0.812,2.885,1.242,4.32
			c0.881,2.862,1.83,5.695,2.891,8.435c1.042,2.745,2.177,5.417,3.409,7.896c1.198,2.487,2.565,4.791,3.842,6.507l-6.036-4.331
			c1.683,0.405,3.181,0.439,4.719,0.1c1.538-0.306,3.161-1.079,4.848-2.189c1.669-1.167,3.362-2.692,4.903-4.515
			c0.771-0.907,1.491-1.895,2.164-2.899c0.335-0.502,0.655-1.01,0.952-1.509c0.142-0.249,0.275-0.502,0.395-0.738l0.161-0.335
			c0.022-0.066,0.129-0.269,0.014-0.123l22.676,14.161c-0.333,0.489-0.453,0.624-0.658,0.896l-0.535,0.668l-1.042,1.236
			c-0.683,0.8-1.374,1.569-2.08,2.317c-1.408,1.5-2.899,2.906-4.45,4.281c-3.107,2.734-6.564,5.27-10.523,7.381
			c-1.993,1.044-4.108,1.987-6.352,2.74c-2.236,0.765-4.639,1.291-7.076,1.621c-4.906,0.661-10.037,0.09-14.603-1.31l-0.331-0.101
			c-2.422-0.743-4.392-2.28-5.706-4.229c-2.343-3.481-3.995-6.769-5.512-9.997c-1.491-3.237-2.783-6.418-3.998-9.587
			c-1.198-3.175-2.324-6.325-3.394-9.486c-0.544-1.577-1.068-3.158-1.576-4.748l-1.536-4.903L274.472,176.378z"/>
		<g>
			<path style="fill:#FFFFFF;" d="M257.939,198.827c0.104,0.284,0.208,0.568,0.314,0.853l1.956-1.195
				c5.798-3.548,11.685-7.142,17.739-9.93c-0.095-0.283-0.183-0.569-0.276-0.853c-6.128,2.813-12.074,6.441-17.928,10.023
				L257.939,198.827z"/>
			<path style="fill:#FFFFFF;" d="M307.481,199.432c-0.39,0.568-0.766,1.115-1.102,1.635c-2.867,4.435-4.929,9.517-5.964,14.694
				c-0.641,3.207-0.19,5.473,1.337,6.737c0.004,0.003,0.008,0.005,0.012,0.008c0.22-0.113,0.444-0.221,0.66-0.336
				c0.08-0.043,0.153-0.091,0.233-0.134c-0.114-0.071-0.23-0.137-0.336-0.224c-1.256-1.039-1.603-3.015-1.031-5.876
				c1.013-5.069,3.032-10.043,5.838-14.386c0.332-0.513,0.703-1.053,1.088-1.614c0.461-0.67,0.942-1.372,1.406-2.098l-0.757-0.473
				C308.409,198.08,307.935,198.773,307.481,199.432z"/>
			<path style="fill:#FFFFFF;" d="M284.763,216.224c1.692,0.361,7.324,1.859,8.734,5.978c0.399,1.167,0.371,2.319,0.07,3.441
				c0.329-0.085,0.658-0.168,0.982-0.262c0.223-1.119,0.199-2.277-0.209-3.468c-1.561-4.561-7.583-6.174-9.391-6.561
				c-6.572-1.401-13.087-0.883-19.53,0.669c0.145,0.268,0.294,0.536,0.445,0.805C272.118,215.345,278.428,214.872,284.763,216.224z"
				/>
		</g>
		<path style="fill:#263238;" d="M264.333,144.918c9.159-3.161,1.337-11.612,1.337-11.612s0.941,3.365-3.499,2.524
			c-4.472-0.848,3.054-15.051-4.521-12.872C251.276,122.323,250.99,149.523,264.333,144.918z"/>
		<g>
			<path style="fill:#407BFF;" d="M296.928,396.922c-0.275,1.988,1.728,7.69,4.124,11.759l-12.406-9.611
				C288.646,399.071,289.947,396.025,296.928,396.922z"/>
		</g>
		<g>
			<path style="fill:#407BFF;" d="M213.025,398.289c-1.127,1.703-3.486,6.991-3.138,11.684c-8.576-0.785-6.468-6.349-5.246-13.102
				C204.641,396.87,207.157,394.62,213.025,398.289z"/>
		</g>
		<g>
			<path style="fill:#407BFF;" d="M210.156,411.144c-3.316-4.24,1.855-12.884,1.855-12.884s-2.797-1.717-7.304-1.801
				C200.665,401.027,201.532,410.554,210.156,411.144z"/>
			<path style="opacity:0.2;" d="M210.156,411.144c-3.316-4.24,1.855-12.884,1.855-12.884s-2.797-1.717-7.304-1.801
				C200.665,401.027,201.532,410.554,210.156,411.144z"/>
			<path style="fill:#407BFF;" d="M194.939,409.341c0,0,14.551,7.078,22.915,5.431c3.738-0.736,0.65-5.895-7.113-5.585
				s-6.807-7.439-3.767-12.85c-5.928-3.159-9.596-1.71-9.596-1.71C197.23,400.423,196.7,405.706,194.939,409.341z"/>
			<g>
				<g>
					<path style="fill:#407BFF;" d="M194.875,411.042l11.316,3.963c2.673,0.936,5.501,1.414,8.367,1.414h4.011
						c0.365,0,0.676-0.299,0.689-0.664l0.04-1.053c0.014-0.365-0.274-0.664-0.639-0.664l-3.311,0.04
						c-2.995,0.036-5.954-0.45-8.744-1.436l-11.053-3.907c-0.351-0.09-0.722,0.126-0.826,0.479l-0.299,1.021
						C194.323,410.588,194.525,410.952,194.875,411.042z"/>
				</g>
				<g style="opacity:0.5;">
					<path style="fill:#FFFFFF;" d="M194.875,411.042l11.316,3.963c2.673,0.936,5.501,1.414,8.367,1.414h4.011
						c0.365,0,0.676-0.299,0.689-0.664l0.04-1.053c0.014-0.365-0.274-0.664-0.639-0.664l-3.311,0.04
						c-2.995,0.036-5.954-0.45-8.744-1.436l-11.053-3.907c-0.351-0.09-0.722,0.126-0.826,0.479l-0.299,1.021
						C194.323,410.588,194.525,410.952,194.875,411.042z"/>
				</g>
			</g>
		</g>
		<g>
			<path style="fill:#407BFF;" d="M302.602,408.815c-5.277-1.918-6.842-11.324-6.842-11.324s-1.934-0.555-6.022,1.642
				C288.594,405.032,294.546,412.656,302.602,408.815z"/>
			<path style="opacity:0.2;" d="M302.602,408.815c-5.277-1.918-6.842-11.324-6.842-11.324s-1.934-0.555-6.022,1.642
				C288.594,405.032,294.546,412.656,302.602,408.815z"/>
			<path style="fill:#407BFF;" d="M287.974,414.948c0,0,18.751-5.163,22.514-6.199c3.763-1.036-1.631-6.054-8.425-1.885
				c-6.794,4.169-11.411-2.521-11.624-8.629c-7.033,0.311-8.269,3.035-8.269,3.035C285.185,406.25,287.58,410.987,287.974,414.948z"
				/>
			<g>
				<path style="fill:#407BFF;" d="M288.841,416.419l22.868-6.296c0.363-0.1,0.58-0.47,0.48-0.821l-0.286-1.014
					c-0.099-0.352-0.478-0.558-0.841-0.458l-22.868,6.296c-0.363,0.1-0.58,0.47-0.48,0.821l0.286,1.014
					C288.099,416.314,288.477,416.52,288.841,416.419z"/>
				<path style="opacity:0.5;fill:#FFFFFF;" d="M288.841,416.419l22.868-6.296c0.363-0.1,0.58-0.47,0.48-0.821l-0.286-1.014
					c-0.099-0.352-0.478-0.558-0.841-0.458l-22.868,6.296c-0.363,0.1-0.58,0.47-0.48,0.821l0.286,1.014
					C288.099,416.314,288.477,416.52,288.841,416.419z"/>
			</g>
		</g>
		<path style="fill:#263238;" d="M249.398,279.986c2.538,8.335,5.719,17.496,9.725,27.377c-0.759,12.273,9.517,72.643,22.092,96.438
			c4.406-4.932,15.942-3.15,17.873-5.565c-7.723-23.264-16.367-67.703-18.417-91.948s-9.064-81.158-9.064-81.158l-31.925-0.432
			C239.683,224.698,238.876,245.287,249.398,279.986z"/>
		<path style="fill:#263238;" d="M195.285,395.879c6.003,2.725,18.246,4.776,19.267,2.866c1.917-11.294,21.991-71.112,25.117-81.417
			c2.431-7.995,7.094-26.362,9.73-37.342c6.409-26.657,13.829-55.288,13.829-55.288h-28.505c0,0-11.828,13.416-15.789,89.551
			C213.789,323.314,197.465,384.101,195.285,395.879z"/>
		<path style="fill:#FF8B7B;" d="M241.046,145.176c1.526,5.639,3.399,15.97-0.266,19.733c0,0,2.352,6.032,15.751,5.218
			c9.779-0.594,1.773-5.217,1.773-5.217c-6.4-1.502-6.585-6.167-5.816-10.548L241.046,145.176z"/>
		<path style="opacity:0.2;" d="M245.711,148.924l6.772,5.433c-0.185,1.037-0.312,2.088-0.308,3.111
			c-2.428-0.347-5.924-2.984-6.367-5.499C245.587,150.713,245.55,149.508,245.711,148.924z"/>
		<path style="fill:#FF8B7B;" d="M236.231,133.858c1.711,9.105,2.242,12.984,7.437,17.351c7.815,6.569,18.552,3.094,19.578-6.188
			c0.924-8.355-2.029-21.841-11.411-24.847C242.592,117.213,234.52,124.754,236.231,133.858z"/>
		<path style="fill:#263238;" d="M250.654,135.375c0.111,0.77,0.6,1.365,1.093,1.329s0.803-0.69,0.693-1.461
			c-0.11-0.77-0.6-1.365-1.093-1.329C250.853,133.951,250.543,134.605,250.654,135.375z"/>
		<path style="fill:#263238;" d="M259.953,134.827c0.111,0.77,0.6,1.365,1.093,1.329c0.493-0.036,0.803-0.69,0.693-1.461
			c-0.111-0.77-0.6-1.365-1.093-1.329C260.153,133.403,259.843,134.057,259.953,134.827z"/>
		<path style="fill:#263238;" d="M260.435,133.425l1.736-0.667C262.171,132.758,261.448,134.272,260.435,133.425z"/>
		<path style="fill:#FF5652;" d="M257.548,136.281c0,0,1.756,3.222,3.395,4.718c-0.86,1.023-2.616,0.714-2.616,0.714
			L257.548,136.281z"/>
		<path style="fill:#263238;" d="M254.396,144.88c0.401,0.042,0.828,0.051,1.282,0.018c0.122-0.009,0.207-0.118,0.189-0.243
			c-0.018-0.124-0.128-0.218-0.254-0.21c-3.309,0.246-5.197-2.003-5.216-2.026c-0.082-0.1-0.224-0.12-0.316-0.044
			c-0.093,0.076-0.102,0.218-0.02,0.318C250.133,142.781,251.652,144.594,254.396,144.88z"/>
		<path style="fill:#FF8B7B;" d="M234.291,141.013c1.08,1.786,2.697,2.81,4.131,3.069c2.157,0.39,2.878-2.105,1.98-4.467
			c-0.809-2.126-2.905-4.89-4.926-4.198C233.485,136.1,233.056,138.971,234.291,141.013z"/>
		<path style="fill:#263238;" d="M239.975,128.503c5.743,2.871-1.825,11.799,3.218,12.823c3.416,0.693,3.092-2.574,3.092-2.574
			s8.246,5.372-2.795,10.991c-12.024,6.119-23.814-10.545-12.328-25.101c-4.555-5.594,18.672-11.577,25.596-6.783
			c6.649,4.604,0.049,9.746-5.04,8.911c1.574-0.743,1.772-3.317-0.584-1.931C248.773,126.229,245.965,128.948,239.975,128.503z"/>
		<path style="fill:#263238;" d="M248.241,131.469c0.117-0.016,0.225-0.078,0.293-0.182c1.06-1.621,2.725-1.561,2.744-1.56
			c0.247,0.01,0.447-0.179,0.441-0.427c-0.006-0.247-0.214-0.457-0.465-0.47c-0.087-0.004-2.177-0.082-3.492,1.931
			c-0.131,0.201-0.065,0.481,0.148,0.627C248.013,131.458,248.131,131.484,248.241,131.469z"/>
		<path style="fill:#263238;" d="M261.72,128.836c0.112,0.008,0.224-0.024,0.311-0.101c0.18-0.158,0.187-0.443,0.015-0.635
			c-1.718-1.93-3.766-1.727-3.853-1.717c-0.245,0.028-0.406,0.25-0.36,0.498c0.045,0.247,0.28,0.426,0.524,0.4
			c0.08-0.009,1.672-0.143,3.037,1.391C261.483,128.771,261.601,128.827,261.72,128.836z"/>
		<path style="fill:#263238;" d="M251.135,133.973l1.736-0.667C252.871,133.306,252.148,134.82,251.135,133.973z"/>
		<path style="fill:#407BFF;" d="M277.106,219.995c-0.085-20.446-1.485-38.034-1.602-41.604c-0.165-5.021-2.97-8.859-7.386-11.096
			c2.44-6.298,5.064-13.995,3.196-18.371c-12.922-2.969-33.659-2.724-43.072,1.784c-5.273,2.525,2.599,11.214,2.599,11.214
			s-4.423,1.707-1.074,5.12c-4.333,2.891-7.124,6.565-8.654,20.724c-2.583,23.893-17.364,145.873-18.14,156.101
			c32.596,3.763,82.926-9.785,86.624-12.476C289.531,319.514,277.255,255.641,277.106,219.995z"/>
		<g>
			<path style="fill:#FFFFFF;" d="M227.721,157.548c5.248-1.713,10.64-2.604,16.227-2.141c1.724,0.144,7.5,0.914,9.421,4.821
				c1.8,3.659-1.009,7.749-3.267,11.035c-0.39,0.568-0.766,1.115-1.102,1.635c-2.867,4.435-4.929,9.517-5.963,14.694
				c-0.641,3.206-0.191,5.473,1.336,6.736c0.925,0.765,2.061,1.017,3.239,1.017c0.883,0,1.79-0.142,2.648-0.314
				c9.239-1.861,17.615-5.87,25.591-10.511c-0.021-0.343-0.04-0.676-0.06-0.995c-8.026,4.697-16.443,8.767-25.707,10.632
				c-1.797,0.364-3.814,0.585-5.144-0.515c-1.256-1.039-1.603-3.015-1.031-5.875c1.013-5.069,3.031-10.044,5.837-14.386
				c0.332-0.513,0.703-1.053,1.088-1.614c2.389-3.478,5.362-7.806,3.332-11.933c-2.129-4.327-8.305-5.162-10.148-5.315
				c-5.773-0.479-11.323,0.455-16.714,2.23C227.436,157.019,227.576,157.285,227.721,157.548z"/>
			<path style="fill:#FFFFFF;" d="M226.102,223.382c1.758-1.12,3.514-2.238,5.276-3.34c10.533-6.586,21.833-13.154,33.979-14.795
				c3.36-0.453,6.019-0.374,8.37,0.251c1.169,0.311,2.2,0.813,3.157,1.427c-0.011-0.36-0.021-0.716-0.032-1.072
				c-0.887-0.516-1.843-0.937-2.896-1.217c-2.468-0.655-5.239-0.743-8.717-0.272c-12.321,1.664-23.717,8.284-34.332,14.922
				c-1.764,1.103-3.522,2.223-5.282,3.344c-3.037,1.934-6.103,3.884-9.222,5.759c-0.044,0.373-0.087,0.741-0.132,1.117
				C219.6,227.519,222.868,225.442,226.102,223.382z"/>
			<path style="fill:#FFFFFF;" d="M262.586,246.264c-0.296,1.008-0.602,2.051-0.81,3.105c-0.31,1.567-0.758,5.466,1.774,7.811
				c1.305,1.208,3.239,1.821,5.912,1.874c3.511,0.073,6.981-0.492,10.408-1.412c-0.035-0.301-0.07-0.601-0.104-0.902
				c-3.399,0.92-6.831,1.489-10.287,1.423c-2.445-0.048-4.186-0.584-5.324-1.637c-2.202-2.039-1.787-5.563-1.506-6.983
				c0.201-1.015,0.501-2.038,0.791-3.027c0.446-1.521,0.908-3.094,1.04-4.72c0.297-3.674-1.221-7.488-3.962-9.952
				c-5.749-5.169-14.042-3.022-21.396-0.241c-2.383,0.902-4.796,1.865-7.128,2.795c-5.542,2.212-11.214,4.46-17.026,6.112
				c-0.038,0.319-0.075,0.636-0.113,0.957c5.976-1.672,11.79-3.974,17.469-6.241c2.329-0.93,4.738-1.891,7.114-2.79
				c7.102-2.688,15.091-4.78,20.485,0.07c2.539,2.282,3.945,5.814,3.669,9.217C263.468,243.257,263.02,244.786,262.586,246.264z"/>
			<path style="fill:#FFFFFF;" d="M233.811,289.933l0.253-0.572c0.642-1.455,1.274-2.952,1.915-4.467
				c3.284-7.776,6.681-15.818,12.663-21.425c1.785-1.673,3.406-2.505,4.955-2.546c2.988-0.091,5.163,2.735,5.953,3.948
				c0.565,0.867,1.065,1.809,1.548,2.72c0.743,1.4,1.511,2.849,2.552,4.104c2.352,2.838,6.106,4.497,9.784,4.358
				c3.302-0.134,6-1.556,8.271-3.69c-0.049-0.37-0.097-0.74-0.146-1.11c-2.232,2.255-4.89,3.777-8.161,3.91
				c-3.415,0.139-6.883-1.408-9.062-4.036c-0.983-1.186-1.729-2.593-2.451-3.954c-0.493-0.928-1.001-1.888-1.589-2.789
				c-0.873-1.339-3.271-4.46-6.723-4.353c-1.777,0.046-3.589,0.958-5.541,2.786c-6.12,5.736-9.554,13.866-12.874,21.728
				c-0.638,1.511-1.268,3.003-1.909,4.454l-0.252,0.572c-3.488,7.911-7.83,17.757-15.739,22.04
				c-2.575,1.393-5.378,1.624-7.498,0.617c-1.155-0.549-2.095-1.348-2.996-2.239c-0.043,0.369-0.086,0.739-0.129,1.104
				c0.813,0.752,1.694,1.441,2.742,1.94c2.376,1.13,5.481,0.891,8.306-0.639C225.858,307.968,230.269,297.968,233.811,289.933z"/>
			<path style="fill:#FFFFFF;" d="M287.37,312.106c-2.216,2.221-4.675,3.89-7.33,4.32c-5.383,0.876-6.735-4.036-8.035-8.783
				c-0.598-2.183-1.162-4.244-2.105-5.71c-1.701-2.645-4.05-4.217-6.982-4.672c-5.591-0.864-12.129,2.595-16.03,5.824
				c-11.295,9.349-21.721,22.215-30.152,37.207c-0.783,1.392-1.536,2.804-2.274,4.224c0.332,0.002,0.666,0.003,1,0.003
				c0.668-1.273,1.347-2.539,2.051-3.79c8.378-14.897,18.732-27.677,29.944-36.957c3.758-3.111,10.027-6.453,15.325-5.629
				c2.669,0.414,4.812,1.852,6.369,4.273c0.869,1.351,1.415,3.349,1.995,5.463c1.338,4.887,2.848,10.427,9.038,9.428
				c2.668-0.432,5.129-1.995,7.344-4.102C287.475,312.841,287.423,312.477,287.37,312.106z"/>
		</g>
		<path style="opacity:0.2;" d="M219.365,203.152c-1.702,14.668-4.224,35.896-6.782,57.462c2.38,0.82,5.178,1.631,8.457,2.451
			c1.969-41.073,8.653-73.182,9.027-75.053L219.365,203.152z"/>
		<path style="opacity:0.2;" d="M236.559,250.665c-2.376,6.238-10.397,11.065-14.333,11.288
			C228.835,252.769,236.559,250.665,236.559,250.665z"/>
		<path style="opacity:0.2;" d="M269.522,330.163c-0.038-0.57-3.755-57.37-2.971-84.602c0.8-27.807-2.109-73.702-3.555-77.173
			l-0.052-0.126l0.026-0.133c0.738-3.691,1.854-9.268,1.477-18.162l0.891-0.038c0.377,8.903-0.723,14.519-1.469,18.252
			c1.482,4.422,4.367,49.831,3.573,77.406c-0.783,27.191,2.932,83.948,2.97,84.519L269.522,330.163z"/>
		<path style="fill:#407BFF;" d="M241.467,187.322l-0.874,0.716l-0.964,0.82c-0.644,0.56-1.278,1.141-1.911,1.727
			c-1.266,1.172-2.514,2.374-3.732,3.595c-2.425,2.454-4.723,4.997-6.786,7.609c-2.067,2.597-3.924,5.267-5.347,7.863
			c-1.454,2.56-2.381,5.135-2.611,6.83l0.166-1.933c0.054,1.204,0.201,2.501,0.501,3.852c0.291,1.353,0.75,2.775,1.27,4.212
			c1.066,2.888,2.609,5.839,4.397,8.744c1.804,2.898,3.897,5.746,6.167,8.473c1.136,1.363,2.342,2.681,3.56,3.965
			c0.61,0.64,1.226,1.271,1.842,1.881l0.931,0.876l0.452,0.409c0.128,0.109,0.325,0.291,0.349,0.287l-19.237,18.566
			c-0.322-0.365-0.465-0.55-0.677-0.807l-0.557-0.7l-1.059-1.368c-0.698-0.898-1.372-1.796-2.033-2.699
			c-1.326-1.803-2.576-3.644-3.812-5.5c-2.457-3.725-4.789-7.559-6.884-11.648c-2.119-4.07-3.989-8.394-5.476-13.09
			c-1.469-4.69-2.477-9.847-2.462-15.452l0.001-0.19c0.002-0.577,0.066-1.194,0.165-1.743c0.539-2.863,1.393-5.37,2.354-7.671
			c0.974-2.292,2.028-4.411,3.177-6.362c2.29-3.925,4.797-7.383,7.387-10.662c2.612-3.255,5.3-6.327,8.078-9.276
			c1.382-1.482,2.788-2.932,4.226-4.358l2.185-2.13l1.117-1.073l1.235-1.145L241.467,187.322z"/>
		<g>
			<path style="fill:#FFFFFF;" d="M221.254,175.123c0.381,0.419,0.715,0.885,0.974,1.413c1.8,3.659-1.009,7.749-3.267,11.035
				c-0.39,0.568-0.766,1.115-1.102,1.635c-2.867,4.436-4.929,9.517-5.963,14.694c-0.641,3.206-0.191,5.473,1.336,6.736
				c0.925,0.765,2.061,1.017,3.239,1.017c0.883,0,1.79-0.142,2.648-0.314c0.703-0.141,1.397-0.303,2.09-0.469
				c0.176-0.349,0.358-0.699,0.554-1.051c-0.932,0.236-1.87,0.455-2.82,0.646c-1.796,0.364-3.814,0.584-5.143-0.515
				c-1.256-1.039-1.603-3.015-1.031-5.875c1.013-5.069,3.031-10.044,5.837-14.386c0.332-0.513,0.703-1.053,1.088-1.614
				c2.389-3.477,5.362-7.806,3.332-11.933c-0.307-0.624-0.706-1.169-1.157-1.656C221.662,174.695,221.462,174.913,221.254,175.123z"
				/>
			<path style="fill:#FFFFFF;" d="M205.819,210.05c-1.025-2.993-3.966-4.711-6.381-5.652c-0.08,0.183-0.163,0.361-0.242,0.546
				c-0.037,0.088-0.071,0.182-0.107,0.27c2.249,0.868,4.966,2.435,5.887,5.124c1.321,3.857-1.985,7.558-4.641,10.531
				c-0.459,0.514-0.901,1.008-1.3,1.481c-0.484,0.573-0.949,1.165-1.403,1.767c0.078,0.394,0.163,0.783,0.249,1.172
				c0.587-0.81,1.193-1.604,1.835-2.363c0.395-0.467,0.831-0.955,1.284-1.462C203.811,218.317,207.31,214.401,205.819,210.05z"/>
			<path style="fill:#FFFFFF;" d="M227.83,234.731c-7.535,3.376-15.289,6.392-23.433,7.923c0.074,0.144,0.143,0.294,0.217,0.438
				c0.068,0.133,0.141,0.26,0.209,0.392c8.193-1.572,15.972-4.617,23.528-8.01C228.174,235.227,228.005,234.978,227.83,234.731z"/>
		</g>
		<path style="fill:#263238;" d="M309.092,237.657c-4.796,0-9.404-2.699-11.601-7.309c-0.321-0.673-0.035-1.48,0.638-1.8
			c0.672-0.32,1.479-0.035,1.8,0.638c2.402,5.042,8.457,7.187,13.5,4.786c5.04-2.402,7.188-8.458,4.786-13.499L241.328,59.119
			c-0.32-0.673-0.035-1.479,0.638-1.8c0.673-0.318,1.479-0.035,1.8,0.638l76.886,161.355c3.043,6.385,0.324,14.056-6.062,17.099
			C312.815,237.257,310.94,237.657,309.092,237.657z"/>
		<g>
			<path style="fill:#407BFF;" d="M246.161,66.123c49.038-23.367,99.484-19.868,108.217-1.541L176.797,149.2
				C168.064,130.873,197.124,89.489,246.161,66.123z"/>
			<path style="opacity:0.2;fill:#FFFFFF;" d="M252.125,63.42c-1.57,6.04-4.53,11.82-11.37,13.67c-3.69,0.99-8.33,0.54-11.06,3.02
				c-1.29,1.18-2.09,2.7-2.67,4.27c-2.55,6.81-1.58,14.79-0.45,22.17c0.92,5.95,2.13,11.96,2.28,17.84l-13.35,6.37
				c-0.69-0.78-1.32-1.6-1.9-2.43c-1.65-2.36-3.58-6.12-7.16-6.44c-2.7-0.24-4.92,1.66-6.14,3.35c-3.01,4.2-3.8,9.23-3.66,14.5
				l-19.85,9.46c-8.73-18.33,20.33-59.71,69.37-83.08C248.155,65.17,250.135,64.27,252.125,63.42z"/>
			<path style="opacity:0.2;fill:#FFFFFF;" d="M354.375,64.58l-107.52,51.23c-0.67-4.09-1.05-8.25,0.17-11.93
				c0.37-1.11,0.97-2.23,2.16-2.75c1.56-0.69,3.67-0.14,5.36,0.72c1.7,0.86,3.21,2.03,4.99,2.73c2.39,0.95,5.14,0.95,7.23-0.01
				c4.58-2.09,4.25-7.55,3.67-11.68c-0.97-7.01-2.65-14.12-1.85-20.94c0.79-6.74,4.28-12.9,11.54-15.65
				c2.79-1.06,5.96-1.57,8.44-3.03c0.7-0.41,1.32-0.88,1.87-1.41C322.225,46.3,348.324,51.88,354.375,64.58z"/>
		</g>
		<g>
			<path style="fill:#407BFF;" d="M330.159,48.044c-0.028,0-0.056-0.003-0.085-0.01c-0.197-0.046-0.318-0.243-0.272-0.44l0.654-2.77
				c0.046-0.197,0.243-0.32,0.44-0.272c0.197,0.046,0.318,0.243,0.272,0.44l-0.654,2.77
				C330.475,47.931,330.324,48.044,330.159,48.044z"/>
			<path style="fill:#407BFF;" d="M331.937,48.932c-0.098,0-0.196-0.039-0.268-0.116c-0.138-0.148-0.129-0.38,0.019-0.518
				l1.558-1.45c0.148-0.137,0.379-0.129,0.518,0.019c0.138,0.148,0.129,0.38-0.019,0.518l-1.558,1.45
				C332.116,48.9,332.026,48.932,331.937,48.932z"/>
			<path style="fill:#407BFF;" d="M328.17,48.043c-0.148,0-0.288-0.091-0.343-0.238l-0.581-1.557
				c-0.071-0.189,0.025-0.4,0.215-0.471c0.189-0.069,0.401,0.025,0.471,0.215l0.581,1.557c0.071,0.189-0.025,0.4-0.215,0.471
				C328.256,48.035,328.212,48.043,328.17,48.043z"/>
		</g>
		<g>
			<path style="fill:#407BFF;" d="M172.595,131.121c-0.053,0-0.107-0.012-0.159-0.037l-2.564-1.236
				c-0.182-0.088-0.258-0.307-0.171-0.489c0.087-0.182,0.306-0.26,0.489-0.17l2.563,1.236c0.182,0.088,0.259,0.307,0.171,0.489
				C172.862,131.044,172.731,131.121,172.595,131.121z"/>
			<path style="fill:#407BFF;" d="M173.847,129.575c-0.125,0-0.248-0.065-0.316-0.181l-1.079-1.834
				c-0.103-0.174-0.045-0.398,0.13-0.501c0.174-0.103,0.398-0.044,0.501,0.13l1.079,1.834c0.103,0.174,0.044,0.398-0.13,0.501
				C173.974,129.559,173.91,129.575,173.847,129.575z"/>
			<path style="fill:#407BFF;" d="M170.519,133.294c-0.179,0-0.336-0.132-0.362-0.315c-0.028-0.2,0.111-0.385,0.311-0.414
				l1.646-0.232c0.202-0.028,0.385,0.111,0.413,0.311c0.028,0.2-0.111,0.385-0.311,0.414l-1.646,0.232
				C170.553,133.292,170.536,133.294,170.519,133.294z"/>
		</g>
		<g>
			<path style="fill:#407BFF;" d="M267.93,55.27c-0.001,0-0.001,0-0.002,0c-0.168-0.001-0.304-0.139-0.303-0.307l0.016-2.373
				c0.001-0.168,0.138-0.303,0.305-0.303c0,0,0.001,0,0.002,0c0.168,0.001,0.304,0.139,0.303,0.307l-0.016,2.373
				C268.234,55.135,268.098,55.27,267.93,55.27z"/>
			<path style="fill:#407BFF;" d="M269.54,55.661c-0.059,0-0.118-0.017-0.171-0.053c-0.14-0.095-0.176-0.284-0.081-0.424
				l0.997-1.468c0.094-0.139,0.283-0.177,0.424-0.081c0.14,0.095,0.176,0.284,0.081,0.424l-0.997,1.468
				C269.734,55.614,269.639,55.661,269.54,55.661z"/>
			<path style="fill:#407BFF;" d="M266.315,55.639c-0.099,0-0.197-0.048-0.255-0.137l-0.763-1.157
				c-0.093-0.141-0.054-0.33,0.087-0.423c0.141-0.093,0.33-0.054,0.423,0.087l0.763,1.157c0.093,0.141,0.054,0.33-0.087,0.423
				C266.43,55.623,266.372,55.639,266.315,55.639z"/>
		</g>
		<g>
			<path style="fill:#407BFF;" d="M212.372,81.012c-0.113,0-0.224-0.052-0.295-0.149l-1.684-2.295
				c-0.12-0.163-0.084-0.392,0.079-0.511c0.163-0.12,0.392-0.084,0.511,0.079l1.684,2.295c0.12,0.163,0.085,0.392-0.079,0.511
				C212.523,80.989,212.446,81.012,212.372,81.012z"/>
			<path style="fill:#407BFF;" d="M214.2,80.234c-0.195,0-0.356-0.153-0.365-0.35l-0.092-2.127c-0.009-0.202,0.148-0.373,0.35-0.381
				c0.215-0.001,0.372,0.148,0.382,0.35l0.092,2.126c0.009,0.202-0.148,0.373-0.35,0.381
				C214.211,80.234,214.206,80.234,214.2,80.234z"/>
			<path style="fill:#407BFF;" d="M211.08,82.524c-0.042,0-0.084-0.007-0.125-0.022l-1.562-0.567
				c-0.19-0.069-0.288-0.279-0.219-0.469c0.068-0.189,0.277-0.288,0.469-0.219l1.562,0.567c0.19,0.069,0.288,0.279,0.219,0.469
				C211.37,82.431,211.229,82.524,211.08,82.524z"/>
		</g>
		<g>
			<path style="fill:#FFFFFF;" d="M294.975,71.195c-0.03,0-0.06-0.004-0.089-0.011c-0.196-0.049-0.316-0.248-0.266-0.444l0.692-2.76
				c0.049-0.197,0.249-0.315,0.444-0.266c0.196,0.049,0.315,0.248,0.266,0.444l-0.692,2.76
				C295.288,71.084,295.138,71.195,294.975,71.195z"/>
			<path style="fill:#FFFFFF;" d="M296.74,72.107c-0.1,0-0.199-0.041-0.272-0.12c-0.135-0.15-0.124-0.381,0.026-0.517l1.578-1.428
				c0.15-0.134,0.381-0.124,0.517,0.026c0.135,0.15,0.124,0.381-0.026,0.517l-1.578,1.428
				C296.915,72.076,296.828,72.107,296.74,72.107z"/>
			<path style="fill:#FFFFFF;" d="M292.986,71.166c-0.15,0-0.291-0.093-0.345-0.243l-0.561-1.565c-0.068-0.19,0.031-0.4,0.221-0.468
				c0.192-0.065,0.4,0.031,0.468,0.221l0.561,1.565c0.068,0.19-0.031,0.4-0.221,0.468C293.069,71.159,293.027,71.166,292.986,71.166
				z"/>
		</g>
		<g>
			<path style="fill:#FFFFFF;" d="M206.335,102.573c-0.119,0-0.234-0.058-0.305-0.163l-1.577-2.369
				c-0.112-0.168-0.066-0.395,0.102-0.507c0.168-0.112,0.395-0.066,0.507,0.102l1.577,2.369c0.112,0.168,0.066,0.395-0.102,0.507
				C206.475,102.553,206.404,102.573,206.335,102.573z"/>
			<path style="fill:#FFFFFF;" d="M208.198,101.879c-0.001,0-0.001,0-0.001,0c-0.202-0.001-0.365-0.165-0.365-0.367l0.005-2.128
				c0.001-0.202,0.164-0.365,0.366-0.365c0,0,0,0,0.001,0c0.202,0.001,0.365,0.165,0.365,0.367l-0.005,2.128
				C208.563,101.716,208.399,101.879,208.198,101.879z"/>
			<path style="fill:#FFFFFF;" d="M204.976,104.024c-0.047,0-0.095-0.009-0.141-0.028l-1.535-0.638
				c-0.186-0.078-0.275-0.291-0.197-0.479c0.078-0.187,0.293-0.274,0.479-0.197l1.535,0.638c0.187,0.078,0.275,0.292,0.197,0.479
				C205.255,103.939,205.119,104.024,204.976,104.024z"/>
		</g>
	</g>
</g>
<g id="Hydrant">
	<g>
		<path style="fill:#407BFF;" d="M138.406,306.085c0,2.685-2.177,4.862-4.863,4.862c-2.685,0-4.862-2.177-4.862-4.862
			c0-2.685,2.177-4.862,4.862-4.862C136.229,301.222,138.406,303.399,138.406,306.085z"/>
		<path style="opacity:0.1;" d="M138.406,306.085c0,2.685-2.177,4.862-4.863,4.862c-2.685,0-4.862-2.177-4.862-4.862
			c0-2.685,2.177-4.862,4.862-4.862C136.229,301.222,138.406,303.399,138.406,306.085z"/>
		
			<ellipse transform="matrix(0.2298 -0.9732 0.9732 0.2298 -210.1858 377.7228)" style="fill:#407BFF;" cx="133.544" cy="321.652" rx="17.348" ry="17.348"/>
		<path style="fill:#407BFF;" d="M152.194,408.512h-37.301c-1.858,0-3.503,1.202-4.068,2.972l-1.518,4.754h48.473l-1.518-4.754
			C155.697,409.713,154.052,408.512,152.194,408.512z"/>
		<rect x="114.877" y="326.182" style="fill:#407BFF;" width="37.333" height="82.33"/>
		<polygon style="opacity:0.1;" points="152.21,337.096 114.877,341.992 114.877,326.182 152.21,326.182 		"/>
		<g>
			<g>
				
					<rect x="152.21" y="347.883" transform="matrix(-1 -1.224647e-16 1.224647e-16 -1 309.4206 728.4572)" style="fill:#407BFF;" width="5.001" height="32.691"/>
				
					<rect x="152.21" y="347.883" transform="matrix(-1 -1.224647e-16 1.224647e-16 -1 309.4206 728.4572)" style="opacity:0.1;" width="5.001" height="32.691"/>
			</g>
			<path style="fill:#407BFF;" d="M161.218,378.793L161.218,378.793v-29.128l0,0c1.334,0,2.415,1.081,2.415,2.415v24.299
				C163.633,377.712,162.552,378.793,161.218,378.793z"/>
			<path style="fill:#407BFF;" d="M159.214,385.712L159.214,385.712c-1.107,0-2.004-0.897-2.004-2.004v-38.959
				c0-1.107,0.897-2.004,2.004-2.004l0,0c1.107,0,2.004,0.897,2.004,2.004v38.959C161.218,384.815,160.321,385.712,159.214,385.712z
				"/>
		</g>
		<g>
			<g>
				<rect x="110.132" y="358.058" style="fill:#407BFF;" width="4.746" height="12.342"/>
				<rect x="110.132" y="358.058" style="opacity:0.1;" width="4.746" height="12.342"/>
			</g>
			<path style="fill:#407BFF;" d="M108.128,380.779L108.128,380.779c1.107,0,2.004-0.897,2.004-2.004v-29.094
				c0-1.107-0.897-2.004-2.004-2.004l0,0c-1.107,0-2.004,0.897-2.004,2.004v29.094C106.124,379.882,107.021,380.779,108.128,380.779
				z"/>
		</g>
		<g>
			<path style="fill:#407BFF;" d="M154.207,320.174H112.88c-1.659,0-3.004,1.345-3.004,3.004l0,0c0,1.659,1.345,3.004,3.004,3.004
				h41.326c1.659,0,3.004-1.345,3.004-3.004l0,0C157.211,321.519,155.866,320.174,154.207,320.174z"/>
			<path style="opacity:0.3;fill:#FFFFFF;" d="M154.207,320.174H112.88c-1.659,0-3.004,1.345-3.004,3.004l0,0
				c0,1.659,1.345,3.004,3.004,3.004h41.326c1.659,0,3.004-1.345,3.004-3.004l0,0C157.211,321.519,155.866,320.174,154.207,320.174z
				"/>
		</g>
		<path style="opacity:0.1;" d="M133.544,404.812L133.544,404.812c-1.068,0-1.934-0.866-1.934-1.934v-71.064
			c0-1.068,0.866-1.934,1.934-1.934l0,0c1.068,0,1.934,0.866,1.934,1.934v71.064C135.477,403.947,134.612,404.812,133.544,404.812z"
			/>
		<path style="opacity:0.1;" d="M143.941,404.812L143.941,404.812c-1.068,0-1.934-0.866-1.934-1.934v-71.064
			c0-1.068,0.866-1.934,1.934-1.934l0,0c1.068,0,1.934,0.866,1.934,1.934v71.064C145.875,403.947,145.009,404.812,143.941,404.812z"
			/>
		<path style="opacity:0.1;" d="M123.146,404.812L123.146,404.812c-1.068,0-1.934-0.866-1.934-1.934v-71.064
			c0-1.068,0.866-1.934,1.934-1.934l0,0c1.068,0,1.934,0.866,1.934,1.934v71.064C125.08,403.947,124.215,404.812,123.146,404.812z"
			/>
	</g>
</g>
<g id="Puddles">
	<g style="opacity:0.4;">
		<path style="fill:#407BFF;" d="M263.798,415.2c-1.95,0.14-4.17,0.23-6.52,0.26c-0.84,0.01-1.71,0.02-2.58,0
			c-1.47,0-2.97-0.03-4.47-0.09c-2.87-0.11-5.61-0.19-8.09-0.27c-2.95-0.11-5.53-0.25-7.57-0.52c-0.28-0.04-0.66-0.11-1.09-0.2
			c-0.88-0.2-1.96-0.5-2.78-0.8c-0.99-0.37-1.58-0.76-0.96-1c0.46-0.18,1.05-0.34,1.74-0.5c0.99-0.22,2.18-0.42,3.5-0.6
			c2.81-0.37,6.19-0.61,9.38-0.67c2.12-0.05,4.16-0.01,5.87,0.12c2.53,0.2,4.71,0.29,6.63,0.35c0.91,0.03,1.75,0.05,2.55,0.07
			c2.47,0.06,4.46,0.1,6.22,0.32c1.83,0.22,3.42,0.65,5.05,1.48C272.468,414.06,269.188,414.83,263.798,415.2z"/>
		<path style="fill:#407BFF;" d="M237.848,418.64c-0.16,0.38-1.69,0.68-5.37,0.67c-0.53,0-1.05-0.01-1.54-0.02
			c-1.21-0.03-2.27-0.09-3.09-0.18c-1.15-0.13-1.83-0.3-1.75-0.49c0.08-0.19,0.94-0.37,2.25-0.49c0.91-0.08,2.04-0.14,3.28-0.17
			c0.46-0.01,0.94-0.01,1.43-0.01C236.738,417.95,238.008,418.26,237.848,418.64z"/>
		<path style="opacity:0.5;fill:#FFFFFF;" d="M256.858,411.28l-2.16,4.18c-1.47,0-2.97-0.03-4.47-0.09
			c-2.87-0.11-5.61-0.19-8.09-0.27l2.22-4.29c2.12-0.05,4.16-0.01,5.87,0.12C252.758,411.13,254.938,411.22,256.858,411.28z"/>
		<path style="opacity:0.5;fill:#FFFFFF;" d="M265.628,411.67l-1.83,3.53c-1.95,0.14-4.17,0.23-6.52,0.26l2.13-4.11
			C261.878,411.41,263.868,411.45,265.628,411.67z"/>
		<path style="opacity:0.5;fill:#FFFFFF;" d="M231.628,417.96l-0.69,1.33c-1.21-0.03-2.27-0.09-3.09-0.18l0.5-0.98
			C229.258,418.05,230.388,417.99,231.628,417.96z"/>
		<path style="opacity:0.5;fill:#FFFFFF;" d="M234.978,411.48l-1.5,2.9c-0.88-0.2-1.96-0.5-2.78-0.8l0.78-1.5
			C232.468,411.86,233.658,411.66,234.978,411.48z"/>
	</g>
	<g style="opacity:0.4;">
		<path style="fill:#407BFF;" d="M363.423,411.445c-33.167,0.029-55.881,4.739-30.784,7.645c25.096,2.906,31.833,0.001,29.257-2.509
			c-2.576-2.51,49.398-0.006,37.347-3.302C387.454,410.053,373.258,411.437,363.423,411.445z"/>
		<g style="opacity:0.5;">
			<path style="fill:#FFFFFF;" d="M370.249,411.309l-2.152,4.173c3.174-0.143,7.216-0.19,11.388-0.214l2.128-4.101
				C377.667,411.095,373.815,411.214,370.249,411.309z"/>
			<path style="fill:#FFFFFF;" d="M343.24,420.058c2.271,0.143,4.315,0.226,6.146,0.238l4.506-8.714
				c-2.211,0.06-4.351,0.155-6.396,0.25L343.24,420.058z"/>
			<path style="fill:#FFFFFF;" d="M333.028,419.143c2.116,0.238,4.089,0.44,5.944,0.594l3.947-7.632
				c-2.342,0.167-4.529,0.345-6.55,0.559L333.028,419.143z"/>
		</g>
	</g>
</g>
</svg>
